<?xml version="1.0" encoding="utf-8"?>
<!-- Generator: Adobe Illustrator 20.0.0, SVG Export Plug-In . SVG Version: 6.00 Build 0)  -->
<svg version="1.1" id="Capa_1" xmlns="http://www.w3.org/2000/svg" xmlns:xlink="http://www.w3.org/1999/xlink" x="0px" y="0px"
	 viewBox="0 0 20 20" style="enable-background:new 0 0 20 20;" xml:space="preserve">
<style type="text/css">
	.st0{fill:#737271;}
</style>
<path class="st0" d="M17.2,5.5c-0.5,0.2-1.1,0.4-1.7,0.5c0.6-0.4,1.1-1,1.3-1.7c-0.6,0.3-1.2,0.6-1.9,0.7c-0.5-0.6-1.3-1-2.2-1
	c-1.6,0-2.9,1.3-2.9,3c0,0.2,0,0.5,0.1,0.7C7.4,7.6,5.3,6.4,3.8,4.6C3.6,5,3.4,5.6,3.4,6.1c0,1,0.5,2,1.3,2.5
	c-0.5,0-0.9-0.1-1.3-0.4c0,0,0,0,0,0c0,1.5,1,2.7,2.4,2.9c-0.2,0.1-0.5,0.1-0.8,0.1c-0.2,0-0.4,0-0.6-0.1c0.4,1.2,1.5,2.1,2.8,2.1
	c-1,0.8-2.3,1.3-3.7,1.3c-0.2,0-0.5,0-0.7,0C4.1,15.5,5.7,16,7.3,16c5.4,0,8.4-4.6,8.4-8.6c0-0.1,0-0.3,0-0.4
	C16.3,6.6,16.8,6.1,17.2,5.5z"/>
</svg>
